<svg width="20" height="21" viewBox="0 0 20 21" fill="none" xmlns="http://www.w3.org/2000/svg">
<g clip-path="url(#clip0_16_118)">
<path d="M10 14.6667C9.34073 14.6667 8.69626 14.4712 8.1481 14.1049C7.59994 13.7386 7.17269 13.218 6.9204 12.6089C6.66811 11.9999 6.6021 11.3296 6.73072 10.683C6.85933 10.0364 7.1768 9.44249 7.64298 8.97631C8.10915 8.51014 8.7031 8.19267 9.3497 8.06405C9.9963 7.93543 10.6665 8.00144 11.2756 8.25374C11.8847 8.50603 12.4053 8.93327 12.7716 9.48143C13.1378 10.0296 13.3333 10.6741 13.3333 11.3333C13.3333 12.2174 12.9821 13.0652 12.357 13.6904C11.7319 14.3155 10.8841 14.6667 10 14.6667ZM15 18C15 17.337 14.7366 16.7011 14.2678 16.2322C13.7989 15.7634 13.163 15.5 12.5 15.5H7.5C6.83696 15.5 6.20107 15.7634 5.73223 16.2322C5.26339 16.7011 5 17.337 5 18V20.5H15V18ZM15 7.16667C14.3407 7.16667 13.6963 6.97117 13.1481 6.6049C12.5999 6.23863 12.1727 5.71803 11.9204 5.10895C11.6681 4.49986 11.6021 3.82964 11.7307 3.18303C11.8593 2.53643 12.1768 1.94249 12.643 1.47631C13.1092 1.01014 13.7031 0.692668 14.3497 0.564051C14.9963 0.435433 15.6665 0.501444 16.2756 0.753736C16.8847 1.00603 17.4053 1.43327 17.7716 1.98143C18.1378 2.5296 18.3333 3.17406 18.3333 3.83334C18.3333 4.71739 17.9821 5.56524 17.357 6.19036C16.7319 6.81548 15.8841 7.16667 15 7.16667ZM5 7.16667C4.34073 7.16667 3.69626 6.97117 3.1481 6.6049C2.59994 6.23863 2.17269 5.71803 1.9204 5.10895C1.66811 4.49986 1.6021 3.82964 1.73072 3.18303C1.85933 2.53643 2.1768 1.94249 2.64298 1.47631C3.10915 1.01014 3.7031 0.692668 4.3497 0.564051C4.9963 0.435433 5.66652 0.501444 6.27561 0.753736C6.8847 1.00603 7.40529 1.43327 7.77156 1.98143C8.13784 2.5296 8.33333 3.17406 8.33333 3.83334C8.33333 4.71739 7.98214 5.56524 7.35702 6.19036C6.7319 6.81548 5.88405 7.16667 5 7.16667ZM5 11.3333C4.99957 10.102 5.45596 8.91424 6.28083 8H2.5C1.83696 8 1.20107 8.26339 0.732233 8.73223C0.263392 9.20108 0 9.83696 0 10.5L0 13H5.29083C5.09946 12.4651 5.00109 11.9014 5 11.3333ZM14.7092 13H20V10.5C20 9.83696 19.7366 9.20108 19.2678 8.73223C18.7989 8.26339 18.163 8 17.5 8H13.7192C14.3212 8.66584 14.7312 9.48256 14.9056 10.3631C15.0799 11.2436 15.012 12.155 14.7092 13Z" fill="#3054CF"/>
</g>
<defs>
<clipPath id="clip0_16_118">
<rect width="20" height="20" fill="white" transform="translate(0 0.5)"/>
</clipPath>
</defs>
</svg>
