<svg width="23" height="24" viewBox="0 0 23 24" fill="none" xmlns="http://www.w3.org/2000/svg">
<path d="M23 20C23 21.654 21.654 23 20 23V24H18V23C16.346 23 15 21.654 15 20H17C17 20.551 17.448 21 18 21H20C20.552 21 21 20.551 21 20C21 19.622 20.729 19.302 20.356 19.24L17.315 18.733C15.973 18.51 15 17.36 15 16C15 14.346 16.346 13 18 13V12H20V13C21.654 13 23 14.346 23 16H21C21 15.449 20.552 15 20 15H18C17.448 15 17 15.449 17 16C17 16.378 17.271 16.698 17.644 16.76L20.685 17.267C22.027 17.49 23 18.64 23 20ZM13.101 15C13.253 14.257 13.583 13.584 14.025 13H4V20H13V18H6V15H13.101ZM4 11H9V9H4V11ZM9 5H4V7H9V5ZM15.031 24H0V3C0 1.346 1.346 0 3 0H12.414L20 7.586V10H18V9H11V2H3C2.449 2 2 2.449 2 3V22H13.424C13.776 22.801 14.337 23.483 15.031 24ZM13 7H16.586L13 3.414V7Z" fill="#555555"/>
</svg>
