<svg width="18" height="19" viewBox="0 0 18 19" fill="none" xmlns="http://www.w3.org/2000/svg">
<g clip-path="url(#clip0_16_77)">
<path d="M17.9655 4.65649L11.652 10.97C10.948 11.6722 9.99431 12.0665 9 12.0665C8.00569 12.0665 7.05197 11.6722 6.348 10.97L0.0345 4.65649C0.024 4.77499 0 4.88224 0 4.99999V14C0.00119089 14.9942 0.396661 15.9473 1.09966 16.6503C1.80267 17.3533 2.7558 17.7488 3.75 17.75H14.25C15.2442 17.7488 16.1973 17.3533 16.9003 16.6503C17.6033 15.9473 17.9988 14.9942 18 14V4.99999C18 4.88224 17.976 4.77499 17.9655 4.65649Z" fill="#3054CF"/>
<path d="M10.5915 9.9095L17.442 3.05825C17.1102 2.50799 16.6421 2.05253 16.083 1.7358C15.5239 1.41907 14.8926 1.25176 14.25 1.25H3.75001C3.10743 1.25176 2.47614 1.41907 1.91703 1.7358C1.35793 2.05253 0.889873 2.50799 0.558014 3.05825L7.40851 9.9095C7.83119 10.3305 8.40345 10.5669 9.00001 10.5669C9.59658 10.5669 10.1688 10.3305 10.5915 9.9095Z" fill="#3054CF"/>
</g>
<defs>
<clipPath id="clip0_16_77">
<rect width="18" height="18" fill="white" transform="translate(0 0.5)"/>
</clipPath>
</defs>
</svg>
