<svg width="18" height="21" viewBox="0 0 18 21" fill="none" xmlns="http://www.w3.org/2000/svg">
<path d="M14.8333 7.16667V6.33333C14.8333 4.78624 14.2188 3.30251 13.1248 2.20854C12.0308 1.11458 10.5471 0.5 9 0.5C7.4529 0.5 5.96917 1.11458 4.87521 2.20854C3.78125 3.30251 3.16667 4.78624 3.16667 6.33333V7.16667H0.666667V18C0.666667 18.663 0.930059 19.2989 1.3989 19.7678C1.86774 20.2366 2.50363 20.5 3.16667 20.5H14.8333C15.4964 20.5 16.1323 20.2366 16.6011 19.7678C17.0699 19.2989 17.3333 18.663 17.3333 18V7.16667H14.8333ZM9.83333 15.5H8.16667V12.1667H9.83333V15.5ZM13.1667 7.16667H4.83333V6.33333C4.83333 5.22826 5.27232 4.16846 6.05372 3.38706C6.83512 2.60565 7.89493 2.16667 9 2.16667C10.1051 2.16667 11.1649 2.60565 11.9463 3.38706C12.7277 4.16846 13.1667 5.22826 13.1667 6.33333V7.16667Z" fill="#3054CF"/>
</svg>
