<svg width="26" height="22" viewBox="0 0 26 22" fill="none" xmlns="http://www.w3.org/2000/svg">
<g clip-path="url(#clip0_16_210)">
<path d="M26 3.20834C26 3.96918 25.2742 4.58334 24.375 4.58334H1.625C0.725833 4.58334 0 3.96918 0 3.20834C0 2.44751 0.725833 1.83334 1.625 1.83334H24.375C25.2742 1.83334 26 2.44751 26 3.20834ZM7.04167 18.3333H1.625C0.725833 18.3333 0 18.9475 0 19.7083C0 20.4692 0.725833 21.0833 1.625 21.0833H7.04167C7.94083 21.0833 8.66667 20.4692 8.66667 19.7083C8.66667 18.9475 7.94083 18.3333 7.04167 18.3333ZM15.7083 10.0833H1.625C0.725833 10.0833 0 10.6975 0 11.4583C0 12.2192 0.725833 12.8333 1.625 12.8333H15.7083C16.6075 12.8333 17.3333 12.2192 17.3333 11.4583C17.3333 10.6975 16.6075 10.0833 15.7083 10.0833Z" fill="black"/>
</g>
<defs>
<clipPath id="clip0_16_210">
<rect width="26" height="22" fill="white"/>
</clipPath>
</defs>
</svg>
