<svg width="20" height="21" viewBox="0 0 20 21" fill="none" xmlns="http://www.w3.org/2000/svg">
<g clip-path="url(#clip0_16_3)">
<path d="M12.8692 12.5H6.13083C5.03567 12.5011 3.98575 12.867 3.21135 13.5175C2.43696 14.168 2.00132 15.05 2 15.9699V19.5H17V15.9699C16.9987 15.05 16.563 14.168 15.7886 13.5175C15.0143 12.867 13.9643 12.5011 12.8692 12.5Z" fill="#3054CF"/>
<path d="M10 10.5C12.7614 10.5 15 8.26142 15 5.5C15 2.73858 12.7614 0.5 10 0.5C7.23858 0.5 5 2.73858 5 5.5C5 8.26142 7.23858 10.5 10 10.5Z" fill="#3054CF"/>
</g>
<defs>
<clipPath id="clip0_16_3">
<rect width="20" height="20" fill="white" transform="translate(0 0.5)"/>
</clipPath>
</defs>
</svg>
