<svg width="22" height="22" viewBox="0 0 22 22" fill="none" xmlns="http://www.w3.org/2000/svg">
<g clip-path="url(#clip0_162_427)">
<path d="M2.75 19.25H11V22H0V3.20833C0 1.43917 1.43917 0 3.20833 0H13.2917C15.0608 0 16.5 1.43917 16.5 3.20833V9.25925C15.3762 9.48842 14.4118 10.1393 13.75 11.0284V3.20833C13.75 2.95625 13.5438 2.75 13.2917 2.75H3.20833C2.95625 2.75 2.75 2.95625 2.75 3.20833V19.25ZM4.58333 16.5H7.33333V13.75H4.58333V16.5ZM9.16667 16.5H11.9167V13.75H9.16667V16.5ZM7.33333 9.16667H4.58333V11.9167H7.33333V9.16667ZM9.16667 11.9167H11.9167V9.16667H9.16667V11.9167ZM7.33333 4.58333H4.58333V7.33333H7.33333V4.58333ZM9.16667 7.33333H11.9167V4.58333H9.16667V7.33333ZM19.25 17.4167H15.5833C14.0672 17.4167 12.8333 18.6505 12.8333 20.1667V22H22V20.1667C22 18.6505 20.7662 17.4167 19.25 17.4167ZM14.6667 13.75C14.6667 15.2662 15.9005 16.5 17.4167 16.5C18.9328 16.5 20.1667 15.2662 20.1667 13.75C20.1667 12.2338 18.9328 11 17.4167 11C15.9005 11 14.6667 12.2338 14.6667 13.75Z" fill="#555555"/>
</g>
<defs>
<clipPath id="clip0_162_427">
<rect width="22" height="22" fill="white"/>
</clipPath>
</defs>
</svg>
