<svg width="50" height="51" viewBox="0 0 50 51" fill="none" xmlns="http://www.w3.org/2000/svg">
<path d="M33.4102 37.5C33.1314 37.5 32.864 37.3946 32.6669 37.2071C32.4697 37.0196 32.359 36.7652 32.359 36.5C32.359 34.6435 31.5836 32.863 30.2036 31.5503C28.8235 30.2375 26.9517 29.5 25 29.5C23.0483 29.5 21.1765 30.2375 19.7964 31.5503C18.4163 32.863 17.641 34.6435 17.641 36.5C17.641 36.7652 17.5303 37.0196 17.3331 37.2071C17.1359 37.3946 16.8686 37.5 16.5897 37.5C16.3109 37.5 16.0435 37.3946 15.8464 37.2071C15.6492 37.0196 15.5385 36.7652 15.5385 36.5C15.5385 34.1131 16.5353 31.8239 18.3097 30.136C20.0841 28.4482 22.4906 27.5 25 27.5C27.5093 27.5 29.9159 28.4482 31.6903 30.136C33.4647 31.8239 34.4615 34.1131 34.4615 36.5C34.4615 36.7652 34.3508 37.0196 34.1536 37.2071C33.9565 37.3946 33.6891 37.5 33.4102 37.5ZM25 25.5C23.7524 25.5 22.5329 25.1481 21.4956 24.4888C20.4583 23.8295 19.6499 22.8925 19.1724 21.7961C18.695 20.6997 18.5701 19.4933 18.8135 18.3295C19.0569 17.1656 19.6576 16.0965 20.5398 15.2574C21.4219 14.4182 22.5458 13.8468 23.7694 13.6153C24.993 13.3838 26.2613 13.5026 27.4138 13.9567C28.5664 14.4109 29.5515 15.1799 30.2446 16.1666C30.9377 17.1533 31.3077 18.3133 31.3077 19.5C31.306 21.0908 30.6409 22.616 29.4584 23.7409C28.2758 24.8658 26.6724 25.4984 25 25.5ZM25 15.5C24.1683 15.5 23.3553 15.7346 22.6637 16.1741C21.9722 16.6136 21.4332 17.2384 21.115 17.9693C20.7967 18.7002 20.7134 19.5044 20.8757 20.2804C21.0379 21.0563 21.4384 21.769 22.0265 22.3284C22.6146 22.8878 23.3639 23.2688 24.1796 23.4231C24.9953 23.5775 25.8408 23.4983 26.6092 23.1955C27.3776 22.8928 28.0344 22.3801 28.4964 21.7223C28.9585 21.0645 29.2051 20.2911 29.2051 19.5C29.2051 18.4391 28.7621 17.4217 27.9735 16.6716C27.1848 15.9214 26.1153 15.5 25 15.5Z" fill="#555555"/>
</svg>
