<svg width="27" height="26" viewBox="0 0 27 26" fill="none" xmlns="http://www.w3.org/2000/svg">
<path d="M16.7178 5.8558L1.60009 21.8441C1.16851 24.208 2.13194 25.345 4.50346 24.7158L18.771 7.87813C19.0152 8.19272 19.4289 8.33667 19.9917 8.27361L20.9246 8.93424C20.8728 9.23321 20.9678 9.42054 21.1905 9.63531L22.9779 11.5723C23.4288 11.8812 23.6697 11.8705 24.0808 11.5723L25.2797 10.3364C25.6198 9.88202 25.6126 9.59668 24.9265 8.98367L23.5882 7.50513C23.1661 7.13044 22.9451 6.9881 22.6509 7.16358L22.1322 6.21982C22.2535 5.72316 22.1702 5.40317 21.7398 4.75476L19.7824 2.77287C19.4809 2.40805 19.2387 2.28579 18.6403 2.25605C14.2111 -0.894288 11.1508 3.39305 11.2162 4.07166C11.5344 4.19749 12.633 3.37957 12.7115 3.32564C14.6661 3.02553 15.6061 3.4335 15.9623 4.44916C16.0707 5.09338 16.3344 5.4937 16.7178 5.8558Z" stroke="#A4A4A4" stroke-width="1.8"/>
</svg>
