<svg width="50" height="50" viewBox="0 0 50 50" fill="none" xmlns="http://www.w3.org/2000/svg">
<path d="M29.1552 15.7746L9.63352 36.4205C9.07622 39.4731 10.3203 40.9413 13.3827 40.1288L31.8066 18.3861C32.1218 18.7923 32.6561 18.9782 33.3828 18.8968L34.5875 19.7498C34.5207 20.1359 34.6432 20.3778 34.9309 20.6552L37.2389 23.1563C37.8212 23.5553 38.1323 23.5415 38.6632 23.1563L40.2112 21.5605C40.6504 20.9737 40.6411 20.6053 39.7553 19.8137L38.027 17.9044C37.4819 17.4206 37.1966 17.2368 36.8167 17.4634L36.1468 16.2447C36.3036 15.6033 36.1959 15.1901 35.6402 14.3528L33.1126 11.7936C32.7232 11.3225 32.4105 11.1646 31.6377 11.1262C25.9183 7.05815 21.9665 12.5944 22.0509 13.4707C22.4619 13.6332 23.8805 12.577 23.9818 12.5074C26.5058 12.1199 27.7197 12.6467 28.1796 13.9582C28.3196 14.7901 28.6601 15.307 29.1552 15.7746Z" stroke="#555555" stroke-width="2.2"/>
</svg>
