<svg width="31" height="30" viewBox="0 0 31 30" fill="none" xmlns="http://www.w3.org/2000/svg">
<g clip-path="url(#clip0_122_748)">
<path d="M7.20825 13.75C9.62075 13.75 11.5833 11.7875 11.5833 9.375C11.5833 6.9625 9.62075 5 7.20825 5C4.79575 5 2.83325 6.9625 2.83325 9.375C2.83325 11.7875 4.79575 13.75 7.20825 13.75ZM7.20825 7.5C8.242 7.5 9.08325 8.34125 9.08325 9.375C9.08325 10.4087 8.242 11.25 7.20825 11.25C6.1745 11.25 5.33325 10.4087 5.33325 9.375C5.33325 8.34125 6.1745 7.5 7.20825 7.5ZM19.7083 8.75C22.1208 8.75 24.0833 6.7875 24.0833 4.375C24.0833 1.9625 22.1208 0 19.7083 0C17.2958 0 15.3333 1.9625 15.3333 4.375C15.3333 6.7875 17.2958 8.75 19.7083 8.75ZM19.7083 2.5C20.742 2.5 21.5833 3.34125 21.5833 4.375C21.5833 5.40875 20.742 6.25 19.7083 6.25C18.6745 6.25 17.8333 5.40875 17.8333 4.375C17.8333 3.34125 18.6745 2.5 19.7083 2.5ZM21.5833 12.5C16.7595 12.5 12.8333 16.4263 12.8333 21.25C12.8333 26.0737 16.7595 30 21.5833 30C26.407 30 30.3333 26.0737 30.3333 21.25C30.3333 16.4263 26.407 12.5 21.5833 12.5ZM21.5833 27.5C18.137 27.5 15.3333 24.6963 15.3333 21.25C15.3333 17.8037 18.137 15 21.5833 15C25.0295 15 27.8333 17.8037 27.8333 21.25C27.8333 24.6963 25.0295 27.5 21.5833 27.5ZM26.572 20.1475L22.252 24.3962C21.867 24.7825 21.3433 24.9988 20.7858 24.9988C20.2283 24.9988 19.7058 24.7812 19.312 24.3875L17.0058 22.1525L18.747 20.3575L20.7845 22.3325L24.8195 18.3638L26.572 20.1475ZM10.3333 15C10.9295 15 11.4858 15.1525 11.987 15.4012C11.5533 16.11 11.1945 16.8687 10.9258 17.67C10.747 17.5712 10.552 17.5 10.3345 17.5H4.08325C3.39325 17.5 2.83325 18.06 2.83325 18.75V22.5H0.333252V18.75C0.333252 16.6825 2.01575 15 4.08325 15H10.3333ZM12.8333 14.1862V13.75C12.8333 11.6825 14.5158 10 16.5833 10H21.5833C18.047 10 14.8958 11.635 12.8333 14.1862Z" fill="#555555"/>
</g>
<defs>
<clipPath id="clip0_122_748">
<rect width="30" height="30" fill="white" transform="translate(0.333252)"/>
</clipPath>
</defs>
</svg>
